<?xml version="1.0" encoding="UTF-8"?>
<svg xmlns="http://www.w3.org/2000/svg" viewBox="0 0 1440 1384">
  <defs>
    <style>
      .cls-1 {
        fill: #bd516f;
      }

      .cls-2, .cls-3, .cls-4, .cls-5, .cls-6, .cls-7, .cls-8 {
        fill: none;
      }

      .cls-2, .cls-3, .cls-5, .cls-6, .cls-7 {
        stroke-miterlimit: 10;
      }

      .cls-2, .cls-4, .cls-5, .cls-6, .cls-7 {
        stroke-width: 12px;
      }

      .cls-2, .cls-4, .cls-8 {
        stroke-linecap: round;
      }

      .cls-2, .cls-7 {
        stroke: #bd516f;
      }

      .cls-9 {
        fill: #848484;
      }

      .cls-10 {
        fill: #979ca2;
      }

      .cls-3, .cls-8 {
        stroke: #a44966;
        stroke-width: 13px;
      }

      .cls-4, .cls-6 {
        stroke: #76797e;
      }

      .cls-4, .cls-8 {
        stroke-linejoin: round;
      }

      .cls-11 {
        fill: #fbf6f3;
      }

      .cls-5 {
        stroke: #979ca2;
      }

      .cls-12 {
        fill: #e1dad6;
      }

      .cls-13 {
        fill: #a44966;
      }

      .cls-14 {
        fill: #f2edeb;
      }

      .cls-15 {
        fill: #404040;
      }
    </style>
  </defs>
  <g id="_レイヤー_2" data-name="レイヤー 2">
    <polygon class="cls-14" points="1437.55 1402.6 -3.81 1402.6 -3.81 532.88 1440.36 508.96 1437.55 1402.6"/>
    <g id="_レイヤー_4" data-name="レイヤー 4">
      <polyline class="cls-11" points="1439.89 503.47 -.45 890.21 -.11 -.3"/>
    </g>
  </g>
  <g id="_レイヤー_1" data-name="レイヤー 1">
    <polygon class="cls-11" points="1440 503.77 0 860.9 0 0 1440 0 1440 503.77"/>
    <polygon class="cls-11" points="1439.66 502.44 -.34 890.51 -.34 .51 1439.66 .51 1439.66 502.44"/>
    <path class="cls-5" d="m0,959.18l532.7,183.53c42.07,14.29,96.42,36.63,139.96,36.08,77.62-.98,200.68-36.77,200.68-36.77,39.25-9.7,202.29-53.12,221.4-58.09l359.48-98.03"/>
    <polygon class="cls-10" points="866.3 657.37 850.15 661.72 841.17 -3.59 858.53 -.27 866.3 657.37"/>
    <polygon class="cls-13" points="1003.17 620.7 987 625.05 978.04 -38.62 995.4 -35.29 1003.17 620.7"/>
    <line class="cls-7" x1="69.24" y1="1106.49" x2="-7" y2="1077.81"/>
    <path class="cls-13" d="m749.77,999.3l-15.83-11.23c-3.08-9.27-16.7-8.3-13.94-13.28,2.77-4.98,14.03-8.28,19.63-9.31l209.48-56.14c7.17-1.32,13.7-5.14,18.38-10.74l21.62-25.9c.7-.84.58-1.72.44-2.17s-.53-1.25-1.58-1.55l-82.25-23.47c-4.12-1.18-9.25-3.33-11-7.24-1.76-3.91.06-9.13,1.91-12.99l90.38-200.24,16.17-4.35-94.84,210.22c-.25.52-.15.97-.02,1.26.13.29.4.67.96.83l82.25,23.47c5.01,1.43,8.91,5.25,10.44,10.23,1.53,4.98.46,10.33-2.88,14.33l-21.62,25.9c-6.61,7.92-15.85,13.32-26,15.19l-209.48,56.14c-2.42.45-3.64,2.06-4.16,2.99s9.14,1.62,10.04,3.91l1.13,4.69.77,9.45Z"/>
    <path class="cls-10" d="m1075.41,1006.61l-11.23-4.24,7.79-20.55c.83-1.67,2.62-6.26.69-10.52-1.21-2.68-6.71-8.29-15.02-10.46l-321.58-78.95c-4.34-1.07-8.97-2.78-10.66-6.92-1.69-4.14-.26-10.26,2.1-14.05l122.66-199.18,16.15-4.35-128.61,209.85c-.47.75-.3,1.46-.15,1.81.14.35.51.98,1.38,1.19l321.67,78.98c9.46,2.47,19.07,8.19,23.14,17.16,3.18,7.01,1.46,12.92-.87,20.51l-7.45,19.74Z"/>
    <path class="cls-7" d="m-3.81,997.77l388.34-105.05c29.69-7.97,80.26,6.76,107.11,16.96l241.26,86.27"/>
    <path class="cls-3" d="m1052.91,1006.61s133.79-36.16,142.98-38.2c9.19-2.04,14.1-20.52,29.62-24.51,18.15-4.67,214.49-58.55,214.49-58.55"/>
    <path class="cls-11" d="m793.86,1022.53l-55.19,12.59c-3.16.7-6.44.69-9.59-.03l-27.33-6.26c-22.7-5.2-22.54-37.58.21-42.56l57.19-12.43c3.22-.7,6.56-.67,9.77.1l25.33,6.11c22.47,5.42,22.18,37.48-.39,42.48Z"/>
    <path class="cls-12" d="m793.86,1011.77l-55.19,12.59c-3.16.7-6.44.69-9.59-.03l-27.33-6.26c-8.94-2.05-14.32-8.32-16.18-15.47-2.85,10.92,2.51,23.91,16.18,27.04l27.33,6.26c3.16.72,6.43.73,9.59.03l55.19-12.59c13.72-3.05,19.19-16.1,16.33-27.07-1.88,7.2-7.33,13.5-16.33,15.5Z"/>
    <line class="cls-2" x1="773.73" y1="1016.36" x2="890.19" y2="1050.04"/>
    <g>
      <path class="cls-1" d="m1087.28,1028.06l-182.83,40.57c-3.16.7-6.44.69-9.59-.03l-27.33-6.26c-22.7-5.2-22.54-37.58.21-42.56l184.84-40.42c3.22-.7,6.56-.67,9.77.1l25.33,6.11c22.47,5.42,22.18,37.48-.39,42.48Z"/>
      <path class="cls-13" d="m1089.32,1011.52l-182.83,40.58c-3.16.7-6.44.69-9.59-.03l-27.33-6.26c-8.98-2.06-14.37-8.38-16.21-15.56-6.38,11.55-1.7,28.46,14.17,32.1l27.33,6.26c3.16.72,6.43.73,9.59.03l182.83-40.57c13.68-3.04,19.16-16.02,16.35-26.98-2.74,4.96-7.5,8.94-14.31,10.45Z"/>
    </g>
    <line class="cls-6" x1="21.5" y1="1456.78" x2="1454.22" y2="1070.67"/>
    <path class="cls-5" d="m505.73,1470.49l55.1-86.49c21.12-33.15,47.49-47.82,142.98-68.36l804.01-217.03"/>
    <path class="cls-7" d="m127.62,1129.83l324.45,113.63c28.6,9.56,64.55,16.31,89.58,9.56l222.93-59.15c21.19-4.02,43.08-1.95,63.15,5.96l262.15,66.18c9.62,2.43,19.52,3.52,29.43,3.25l325.22.04"/>
    <path class="cls-4" d="m-4.26,1134.24l338.44-89.23c15.04-3.86,30.42-6.27,45.92-7.21l306.15-21.44"/>
    <path class="cls-8" d="m1467.13,1173.14l-252.36,68.01c-1.07.23-1.93.52-2.99.81-15.43,4.16-28.73,13.08-37.25,26.18l-1.19,1.95c-8.29,13.64-21.59,23.5-37.05,27.48l-28.56,7.35"/>
    <path class="cls-11" d="m129.55,1122.29l-37.82,9.5c-2.17.53-4.41.52-6.57-.02l-18.73-4.72c-15.55-3.92-15.44-28.36.14-32.11l39.19-9.38c2.21-.53,4.5-.5,6.69.08l17.36,4.61c15.4,4.09,15.2,28.28-.26,32.06Z"/>
    <path class="cls-12" d="m129.55,1115.38l-37.82,8.63c-2.17.48-4.41.47-6.57-.02l-18.73-4.29c-6.13-1.4-9.81-5.7-11.09-10.6-1.95,7.49,1.72,16.38,11.09,18.53l18.73,4.29c2.16.5,4.41.5,6.57.02l37.82-8.63c9.4-2.09,13.15-11.03,11.19-18.55-1.29,4.93-5.02,9.25-11.19,10.62Z"/>
    <rect class="cls-1" x="108.57" y="1121.92" width="28.09" height="12.63" rx="6.31" ry="6.31" transform="translate(353.38 17.07) rotate(17.93)"/>
    <g>
      <path class="cls-1" d="m1113.1,1326.33l-27.89,7.07c-2.14.47-4.36.47-6.49-.02l-18.49-4.24c-15.36-3.52-15.25-25.43.14-28.79l28.15-6.7c2.18-.48,6.62-.57,8.78-.05l16.06,3.99c15.2,3.66,15.01,25.36-.26,28.74Z"/>
      <rect class="cls-13" x="1040.83" y="1314.01" width="21.21" height="9.19" rx="4.6" ry="4.6" transform="translate(-342.58 369.41) rotate(-17.18)"/>
      <rect class="cls-13" x="1055.61" y="1320.27" width="25.07" height="9.19" rx="4.6" ry="4.6" transform="translate(-343.68 374.63) rotate(-17.18)"/>
    </g>
    <path class="cls-1" d="m554.38,515.75l-358.22,95.92c-5.9,1.58-10.01,6.93-10.01,13.04h0s0,0,0,0v.25s0,2.89,0,2.89h.02s1.51,211.82,1.51,211.82l19.82-5.34-1.47-195.97c-.51-9.02-.85-15.83,5.62-17.35l345.57-92.74c2.4-.64,4.07-2.81,4.08-5.29v-1.87c.03-3.64-3.41-6.3-6.92-5.35Z"/>
    <g>
      <path class="cls-15" d="m169.21,407.09c-2.93-1.19-5.19-3.36-6.79-6.53-1.6-3.16-2.41-7.1-2.41-11.82v-18.24c0-4.72.79-9.09,2.39-13.09,1.6-4.01,3.86-7.38,6.79-10.12,2.92-2.74,6.3-4.61,10.14-5.62s7.21-.93,10.14.26c2.93,1.19,5.19,3.36,6.79,6.53,1.6,3.16,2.41,7.1,2.41,11.82v18.24c0,4.72-.79,9.09-2.39,13.09-1.6,4.01-3.86,7.38-6.79,10.12-2.93,2.74-6.3,4.61-10.14,5.62s-7.21.93-10.14-.26Zm16.13-12.01c1.73-1.65,3.06-3.7,4.01-6.15.94-2.45,1.42-5.12,1.42-8.01v-18.85c0-2.89-.48-5.31-1.43-7.26-.95-1.95-2.28-3.29-4.01-4.03-1.73-.74-3.73-.81-6-.21s-4.27,1.73-6,3.38c-1.73,1.65-3.06,3.7-4.01,6.15-.94,2.45-1.42,5.12-1.42,8.01v18.85c0,2.89.48,5.31,1.43,7.26.95,1.95,2.28,3.29,4.01,4.03,1.73.74,3.73.81,6,.21s4.27-1.73,6-3.38Z"/>
      <path class="cls-15" d="m211.57,398.05c-2.03,0-3.93-.29-5.7-.89-1.77-.6-3.39-1.49-4.88-2.69l4.58-7.8c2.12,1.33,4.23,2.19,6.32,2.58,2.09.39,4.16.32,6.21-.22,3.05-.81,5.34-1.96,6.87-3.47,1.53-1.51,2.29-3.37,2.29-5.58,0-1.48-.42-2.47-1.25-2.99s-1.87-.74-3.1-.66c-1.24.08-2.98.31-5.22.69-.2.05-.42.1-.64.15s-.44.08-.64.1c-.1.03-.2.05-.3.06-.1.01-.2.03-.3.06-2.55.44-4.7.57-6.47.4-1.77-.17-3.24-.97-4.41-2.4s-1.76-3.77-1.76-7.02.56-6.1,1.7-8.55c1.13-2.45,2.82-4.52,5.07-6.19,2.24-1.67,5.06-2.95,8.44-3.85,2.04-.54,3.99-.83,5.85-.88s3.63.14,5.32.56c1.69.42,3.32,1.09,4.88,2.01l-4.65,7.82c-1.97-.96-3.9-1.55-5.81-1.78-1.91-.23-3.76-.11-5.58.37-2.62.69-4.59,1.74-5.9,3.13-1.31,1.39-1.97,3.14-1.97,5.23,0,1.24.37,2.07,1.12,2.49.74.42,1.68.59,2.82.49s2.75-.34,4.84-.75c.15-.01.31-.04.47-.08s.33-.07.51-.09l.23-.06c.08-.02.15-.03.23-.02,2.75-.52,5.09-.71,7.02-.57s3.55.99,4.86,2.57c1.31,1.57,1.97,4.17,1.97,7.8,0,3.3-.6,6.2-1.81,8.69-1.21,2.49-3.03,4.6-5.46,6.34-2.43,1.74-5.49,3.09-9.17,4.06-2.32.61-4.5.92-6.53.93Z"/>
      <path class="cls-15" d="m241.45,387.43c-2.4-1.71-3.6-4.96-3.6-9.74s1.09-8.24,3.29-11.09,5.51-4.86,9.95-6.04l11.16-2.95.53,7.12-11.65,3.08c-2.02.53-3.52,1.46-4.52,2.77-1,1.31-1.49,3.04-1.49,5.2,0,2.33.66,3.88,1.99,4.65s3.34.8,6.04.09c2.95-.78,5.15-1.73,6.6-2.85,1.45-1.12,2.17-2.46,2.17-4.03l.8,6.25c-.68,1.42-1.52,2.66-2.51,3.72-1,1.06-2.15,1.96-3.46,2.71-1.31.74-2.79,1.33-4.43,1.77-4.84,1.28-8.46,1.06-10.86-.65Zm20.46-31.68c0-3.01-.69-5.17-2.06-6.47-1.38-1.3-3.32-1.62-5.85-.96-1.56.41-3.1,1.1-4.6,2.06-1.5.96-2.83,2.09-3.99,3.4l-5.64-3.02c1.49-2.49,3.45-4.64,5.88-6.45,2.43-1.81,5.14-3.11,8.11-3.89,3.25-.86,6.04-.93,8.36-.2,2.32.73,4.09,2.21,5.3,4.44,1.21,2.23,1.82,5.15,1.82,8.75v29.52s-7.33,1.94-7.33,1.94v-29.12Z"/>
      <path class="cls-15" d="m276.31,316.71l7.72-2.04.03,64.35-7.72,2.04-.03-64.35Zm3.35,46.04l20.19-33.84,9.08-2.4-29.76,47.08.49-10.84Zm9.11-11.48l4.95-7.33,17.15,28-8.4,2.22-13.71-22.89Z"/>
      <path class="cls-15" d="m315.91,367.75c-2.4-1.71-3.6-4.96-3.6-9.74s1.09-8.24,3.29-11.09,5.51-4.86,9.95-6.04l11.16-2.95.53,7.12-11.65,3.08c-2.02.53-3.52,1.46-4.52,2.77-1,1.31-1.49,3.04-1.49,5.2,0,2.33.66,3.88,1.99,4.65s3.34.8,6.04.09c2.95-.78,5.15-1.73,6.6-2.85,1.45-1.12,2.17-2.46,2.17-4.03l.8,6.25c-.68,1.42-1.52,2.66-2.51,3.72-1,1.06-2.15,1.96-3.46,2.71-1.31.74-2.79,1.33-4.43,1.77-4.84,1.28-8.46,1.06-10.86-.65Zm20.46-31.68c0-3.01-.69-5.17-2.06-6.47-1.38-1.3-3.32-1.62-5.85-.96-1.56.41-3.1,1.1-4.6,2.06-1.5.96-2.83,2.09-3.99,3.4l-5.64-3.02c1.49-2.49,3.45-4.64,5.88-6.45,2.43-1.81,5.14-3.11,8.11-3.89,3.25-.86,6.04-.93,8.36-.2,2.32.73,4.09,2.21,5.3,4.44,1.21,2.23,1.82,5.15,1.82,8.75v29.52s-7.33,1.94-7.33,1.94v-29.12Z"/>
      <path class="cls-15" d="m367.69,292.52l7.72-2.04.03,64.4-7.72,2.04-.03-64.4Zm3.38,27.7l18.77-4.96c1.46-.39,2.76-1.14,3.9-2.27,1.13-1.13,2.01-2.53,2.63-4.21.62-1.68.93-3.51.92-5.49s-.31-3.64-.93-5c-.62-1.36-1.49-2.3-2.61-2.83-1.12-.53-2.43-.6-3.92-.2l-18.77,4.96v-8.59s18.46-4.88,18.46-4.88c3.18-.84,5.97-.81,8.38.09,2.41.9,4.28,2.58,5.6,5.05,1.33,2.47,1.99,5.55,1.99,9.23s-.67,7.12-2,10.29c-1.34,3.17-3.21,5.84-5.62,8.01-2.41,2.17-5.19,3.67-8.34,4.51l-18.46,4.88v-8.59Zm14.99,2.64l7.68-4.07,14.09,27.53-9.16,2.42-12.61-25.88Z"/>
      <path class="cls-15" d="m418.98,325.35c0,3.22.7,5.52,2.1,6.9s3.37,1.74,5.92,1.07,4.48-1.97,5.86-3.9c1.39-1.93,2.08-4.34,2.08-7.23l.53,9.46c-.81,2.49-2.12,4.74-3.93,6.75s-4.05,3.37-6.7,4.07c-4.34,1.15-7.69.4-10.05-2.24-2.36-2.64-3.54-6.92-3.54-12.85v-27.93s7.71-2.04,7.71-2.04v27.93Zm15.95-32.15l7.68-2.03.02,45.94-7.68,2.03-.02-45.94Z"/>
      <path class="cls-15" d="m449.69,270.89l7.72-2.04.03,64.35-7.72,2.04-.03-64.35Zm11.23,60c-1.82-.89-3.15-2.48-4.01-4.76l.53-9.74c0,1.98.3,3.58.91,4.81s1.48,2.06,2.63,2.49c1.15.43,2.54.44,4.18,0,2.55-.67,4.52-2.1,5.92-4.29,1.4-2.19,2.1-4.93,2.1-8.23v-9.96c0-3.36-.71-5.79-2.11-7.28s-3.37-1.9-5.92-1.22c-1.64.43-3.03,1.16-4.18,2.17-1.15,1.01-2.02,2.28-2.63,3.82s-.91,3.26-.91,5.17l-.8-8.64c1.18-3,2.73-5.48,4.65-7.45,1.92-1.97,4.05-3.26,6.39-3.88,2.77-.73,5.15-.63,7.13.31,1.98.94,3.49,2.67,4.52,5.2,1.04,2.53,1.55,5.77,1.56,9.73v10c0,3.89-.52,7.37-1.58,10.42s-2.61,5.58-4.65,7.58c-2.04,2-4.49,3.38-7.34,4.13-2.45.65-4.58.52-6.39-.37Z"/>
      <path class="cls-15" d="m484.58,280.08l7.87-2.08,12.09,36.73-4.27,10.91-15.68-45.56Zm34.77-9.19l-16.7,61.12c-.6,2.25-1.4,4.12-2.38,5.61-.98,1.48-2.19,2.68-3.63,3.59s-3.2,1.64-5.3,2.2l-1.55.41v-8.67s1.55-.41,1.55-.41c1.44-.38,2.58-1.02,3.42-1.92.84-.9,1.58-2.26,2.21-4.08l14.51-55.76,7.87-2.08Z"/>
      <path class="cls-15" d="m538.42,247.44l7.72-2.04.03,64.35-7.72,2.04-.03-64.35Zm6.07,34.52l24.27-42.54,9.5-2.51-34.9,58.89,1.13-13.84Zm9.15-8.53l6.09-8.2,20.86,35.43-9.46,2.5-17.49-29.73Z"/>
      <path class="cls-15" d="m586.01,296.37c-2.4-1.71-3.6-4.96-3.6-9.74s1.09-8.24,3.29-11.09,5.51-4.86,9.95-6.04l11.16-2.95.53,7.12-11.65,3.08c-2.02.53-3.52,1.46-4.52,2.77-1,1.31-1.49,3.04-1.49,5.2,0,2.33.66,3.88,1.99,4.65s3.34.8,6.04.09c2.95-.78,5.15-1.73,6.6-2.85,1.45-1.12,2.17-2.46,2.17-4.03l.8,6.25c-.68,1.42-1.52,2.66-2.51,3.72-1,1.06-2.15,1.96-3.46,2.71-1.31.74-2.79,1.33-4.43,1.77-4.84,1.28-8.46,1.06-10.86-.65Zm20.46-31.68c0-3.01-.69-5.17-2.06-6.47-1.38-1.3-3.32-1.62-5.85-.96-1.56.41-3.1,1.1-4.6,2.06-1.5.96-2.83,2.09-3.99,3.4l-5.64-3.02c1.49-2.49,3.45-4.64,5.88-6.45,2.43-1.81,5.14-3.11,8.11-3.89,3.25-.86,6.04-.93,8.36-.2,2.32.73,4.09,2.21,5.3,4.44,1.21,2.23,1.82,5.15,1.82,8.75v29.52s-7.33,1.94-7.33,1.94v-29.12Z"/>
      <path class="cls-15" d="m620.87,225.65l7.72-2.04v9.03s-7.71,2.04-7.71,2.04v-9.03Zm0,18.41l7.72-2.04.02,45.94-7.72,2.04-.02-45.94Z"/>
      <path class="cls-15" d="m640.78,283.36c-2.03-.92-3.58-2.65-4.64-5.17s-1.59-5.75-1.59-9.67v-10.14c0-3.95.51-7.47,1.54-10.55,1.03-3.08,2.54-5.61,4.52-7.59,1.98-1.98,4.36-3.34,7.13-4.08,2.32-.61,4.45-.47,6.38.44,1.93.91,3.49,2.49,4.68,4.74l-.79,9.59c0-1.95-.3-3.53-.91-4.76-.61-1.23-1.48-2.05-2.63-2.47-1.15-.42-2.54-.41-4.18.02-2.55.67-4.52,2.12-5.92,4.35s-2.1,5.03-2.1,8.39v10c0,3.33.71,5.72,2.11,7.17,1.4,1.45,3.37,1.83,5.92,1.16,1.64-.43,3.03-1.18,4.18-2.23,1.15-1.05,2.02-2.37,2.63-3.95s.91-3.35.91-5.33l.53,9.55c-.78,2.48-2.06,4.72-3.84,6.72-1.78,2-3.97,3.35-6.56,4.04-2.88.76-5.33.68-7.36-.25Zm.16,18.11c-2.33-.67-4.14-2-5.43-3.99l5.22-6.91c1.01,1.36,2.21,2.29,3.61,2.81s2.87.57,4.41.16c2.95-.78,5.23-2.34,6.85-4.66,1.61-2.33,2.42-5.24,2.42-8.72l-.02-45.9,7.72-2.04.02,44.57c0,4.22-.66,8.01-1.98,11.37-1.32,3.36-3.25,6.15-5.77,8.39s-5.56,3.82-9.12,4.76c-2.95.78-5.59.84-7.93.17Z"/>
      <path class="cls-15" d="m672.78,211.93l7.72-2.04v9.03s-7.71,2.04-7.71,2.04v-9.03Zm0,18.41l7.72-2.04.02,45.94-7.72,2.04-.02-45.94Z"/>
      <path class="cls-15" d="m707.38,262.99c-2.66-2.51-4-6.65-4-12.4v-29.26c-.01-5.78,1.32-10.63,3.99-14.54,2.67-3.91,6.57-6.54,11.69-7.89s9.05-.8,11.71,1.69c2.66,2.48,4,6.63,4,12.44v29.26c.01,5.78-1.32,10.63-3.99,14.54-2.67,3.91-6.57,6.54-11.69,7.89-5.15,1.36-9.05.78-11.71-1.73Zm17.74-10.95c1.3-2.01,1.95-4.58,1.95-7.71v-29.26c-.01-3.13-.66-5.36-1.94-6.68-1.29-1.33-3.31-1.63-6.05-.9s-4.77,2.09-6.05,4.1c-1.29,2.01-1.93,4.57-1.93,7.7v29.26c.01,3.13.66,5.35,1.96,6.68,1.3,1.33,3.31,1.63,6.04.91s4.73-2.08,6.03-4.1Z"/>
      <path class="cls-15" d="m747.58,255.22c-2.35-.69-4.23-2.1-5.66-4.21-1.43-2.12-2.33-4.88-2.71-8.29l7.87-2.08c.23,1.77.72,3.14,1.48,4.12s1.73,1.6,2.93,1.86c1.2.26,2.61.17,4.22-.25,2.55-.67,4.53-1.99,5.94-3.96s2.12-4.4,2.12-7.29v-1.95c0-3.22-.67-5.53-2.01-6.93-1.34-1.4-3.23-1.78-5.68-1.13l-3.9,1.03v-8.59s3.89-1.03,3.89-1.03c2.14-.57,3.81-1.76,4.99-3.58s1.78-4.1,1.78-6.84v-1.99c0-2.54-.63-4.33-1.88-5.39-1.25-1.06-3.02-1.28-5.32-.68-1.31.35-2.48.94-3.52,1.79s-1.91,1.97-2.63,3.35c-.72,1.38-1.24,3.02-1.57,4.91l-7.83,2.07c.5-3.64,1.45-6.91,2.85-9.78,1.4-2.88,3.17-5.25,5.31-7.11,2.14-1.86,4.6-3.16,7.38-3.9,4.74-1.25,8.41-.76,11.01,1.47s3.9,6.01,3.9,11.32v1.06c0,3.22-.74,6.22-2.23,9-1.49,2.78-3.59,5.08-6.32,6.89,3-.03,5.33,1.09,6.98,3.33,1.65,2.25,2.48,5.45,2.48,9.61v1.06c0,3.75-.61,7.11-1.85,10.09s-3.03,5.48-5.39,7.49c-2.36,2.01-5.2,3.46-8.53,4.33-3.08.81-5.79.87-8.14.18Z"/>
    </g>
    <g>
      <path class="cls-9" d="m176.73,482.86c-.96.04-1.85-.05-2.68-.27-.83-.22-1.61-.55-2.33-1.02l1.32-2.21c.93.63,1.95,1.01,3.07,1.15,1.12.14,2.34.03,3.65-.31,1.9-.5,3.37-1.3,4.41-2.38,1.04-1.08,1.56-2.35,1.55-3.81v-.02c0-.9-.23-1.57-.69-1.99-.45-.42-1.04-.68-1.76-.76-.72-.08-1.64-.09-2.77-.02-.03,0-.06,0-.1,0-.04,0-.07,0-.11,0l-.44.02c-1.56.1-2.8.1-3.74,0-.94-.09-1.74-.47-2.39-1.12-.66-.65-.99-1.7-1-3.16v-.02c0-1.47.3-2.81.91-4.01.61-1.2,1.51-2.23,2.68-3.09,1.18-.86,2.6-1.51,4.25-1.95.78-.21,1.56-.32,2.33-.34.77-.02,1.53.06,2.28.22.75.17,1.49.43,2.23.79l-1.29,2.19c-.96-.47-1.9-.75-2.81-.87-.92-.11-1.82-.05-2.72.19-1.81.48-3.21,1.26-4.21,2.34-.99,1.08-1.49,2.36-1.48,3.84v.02c0,.89.25,1.53.76,1.92.5.39,1.12.61,1.86.66.74.06,1.75.05,3.03-.02.04,0,.08,0,.13,0,.05,0,.09,0,.15,0,.06,0,.12,0,.18,0,.06,0,.11,0,.18,0,1.39-.06,2.56-.02,3.48.12.93.15,1.7.56,2.32,1.23.62.67.93,1.71.94,3.13v.03c0,1.45-.31,2.77-.95,3.97s-1.56,2.23-2.78,3.09c-1.21.86-2.68,1.52-4.4,1.98-1.07.28-2.08.44-3.04.48Z"/>
      <path class="cls-9" d="m192.89,478.02c-1.04-.32-1.83-.97-2.38-1.97-.55-.99-.83-2.29-.83-3.89v-1.91c-.01-1.68.24-3.18.76-4.51.52-1.33,1.28-2.43,2.27-3.32.99-.89,2.19-1.51,3.6-1.89,1.32-.35,2.45-.34,3.39.02.94.36,1.66,1.06,2.15,2.1.5,1.04.75,2.38.76,4.03v1.94s-11.44,3.03-11.44,3.03v-2.12s9.39-2.49,9.39-2.49v-.16c0-1.68-.38-2.88-1.12-3.6-.74-.72-1.78-.91-3.13-.55-1.48.39-2.61,1.18-3.41,2.36-.8,1.18-1.2,2.66-1.19,4.44v2.16c.01,1.7.45,2.9,1.3,3.61s2.06.85,3.62.44c.73-.19,1.46-.55,2.17-1.07s1.35-1.15,1.91-1.9l1.5,1.14c-.77,1.01-1.64,1.87-2.62,2.57s-1.96,1.18-2.96,1.45c-1.46.39-2.72.42-3.76.1Z"/>
      <path class="cls-9" d="m204.98,458.48l2.2-.58.08,23.86-2.2.58-.08-23.86Zm3.93,15.5c-.87-.22-1.5-.8-1.9-1.73l.2-3.6c0,.74.17,1.41.5,2,.33.59.8,1.02,1.41,1.29s1.32.29,2.14.07c1.32-.35,2.34-1.04,3.06-2.08.72-1.04,1.08-2.32,1.07-3.84v-3.68c-.02-1.56-.38-2.67-1.11-3.33-.73-.66-1.75-.82-3.07-.47-.81.22-1.53.61-2.13,1.2-.61.58-1.07,1.25-1.4,2-.32.75-.48,1.49-.48,2.22l-.33-3.18c.55-1.25,1.27-2.23,2.18-2.96.91-.73,1.97-1.25,3.18-1.57,1.12-.3,2.08-.28,2.88.05.8.33,1.41.95,1.83,1.88.42.92.63,2.12.64,3.58v3.69c.02,1.44-.19,2.73-.61,3.86-.42,1.14-1.05,2.08-1.87,2.84s-1.81,1.29-2.96,1.59c-1.28.34-2.36.4-3.22.18Z"/>
      <path class="cls-9" d="m218.88,454.8l7.14-1.89v2.03s-7.13,1.89-7.13,1.89v-2.03Zm2.58,15.24c-.6-.6-.9-1.64-.9-3.12l-.06-17.48,2.2-.58.06,17.52c0,.73.16,1.25.46,1.56s.76.39,1.36.23l1.5-.4v2.19s-1.79.48-1.79.48c-1.28.34-2.22.21-2.82-.39Z"/>
      <path class="cls-9" d="m231.21,467.86c-1.04-.32-1.83-.97-2.38-1.97-.55-.99-.83-2.29-.83-3.89v-1.91c-.01-1.68.24-3.18.76-4.51.52-1.33,1.28-2.43,2.27-3.32.99-.89,2.19-1.51,3.6-1.89,1.32-.35,2.45-.34,3.39.02.94.36,1.66,1.06,2.15,2.1.5,1.04.75,2.38.76,4.03v1.94s-11.44,3.03-11.44,3.03v-2.12s9.39-2.49,9.39-2.49v-.16c0-1.68-.38-2.88-1.12-3.6-.74-.72-1.78-.91-3.13-.55-1.48.39-2.61,1.18-3.41,2.36-.8,1.18-1.2,2.66-1.19,4.44v2.16c.01,1.7.45,2.9,1.3,3.61s2.06.85,3.62.44c.73-.19,1.46-.55,2.17-1.07s1.35-1.15,1.91-1.9l1.5,1.14c-.77,1.01-1.64,1.87-2.62,2.57s-1.96,1.18-2.96,1.45c-1.46.39-2.72.42-3.76.1Z"/>
      <path class="cls-9" d="m243.3,448.32l2.2-.58.06,16.96-2.2.58-.06-16.96Zm9.94,4.05c0-1.5-.34-2.58-1.01-3.23-.67-.65-1.62-.81-2.85-.49s-2.18.95-2.86,1.88c-.67.93-1.01,2.07-1,3.43l-.33-3.18c.52-1.27,1.21-2.27,2.07-3,.85-.73,1.85-1.24,2.99-1.54s2.02-.27,2.8.07,1.37.96,1.78,1.89c.41.93.61,2.12.62,3.58l.04,10.29-2.2.58-.04-10.28Zm9.92-2.63c0-1.5-.35-2.58-1.02-3.23-.67-.65-1.62-.81-2.84-.49s-2.18.98-2.86,1.97c-.67.99-1.01,2.21-1,3.67l-.94-2.2c.5-1.54,1.21-2.8,2.11-3.79.9-.99,1.99-1.65,3.26-1.98,1.15-.3,2.13-.3,2.96.03.82.32,1.45.94,1.88,1.87.43.92.65,2.11.65,3.57l.04,10.29-2.2.58-.04-10.28Z"/>
      <path class="cls-9" d="m268.16,434.93l2.2-.58.08,23.76-2.2.58-.08-23.76Zm3.96,22.3c-.87-.22-1.5-.8-1.9-1.73l.2-3.6c0,.74.17,1.41.5,2,.33.59.8,1.02,1.41,1.29s1.32.29,2.14.07c1.32-.35,2.34-1.04,3.06-2.08.72-1.04,1.08-2.32,1.07-3.84v-3.68c-.02-1.56-.38-2.67-1.11-3.33-.73-.66-1.75-.82-3.07-.47-.81.22-1.53.61-2.13,1.2-.61.58-1.07,1.25-1.4,2-.32.75-.48,1.49-.48,2.22l-.33-3.18c.55-1.25,1.27-2.23,2.18-2.96.91-.73,1.97-1.25,3.18-1.57,1.12-.3,2.08-.28,2.88.05.8.33,1.41.95,1.83,1.88.42.92.63,2.12.64,3.58v3.69c.02,1.44-.19,2.73-.61,3.86-.42,1.14-1.05,2.08-1.87,2.84s-1.81,1.29-2.96,1.59c-1.28.34-2.36.4-3.22.18Z"/>
      <path class="cls-9" d="m286.1,453.31c-1.04-.32-1.83-.97-2.38-1.97-.55-.99-.83-2.29-.83-3.89v-1.91c-.01-1.68.24-3.18.76-4.51.52-1.33,1.28-2.43,2.27-3.32.99-.89,2.19-1.51,3.6-1.89,1.32-.35,2.45-.34,3.39.02.94.36,1.66,1.06,2.15,2.1.5,1.04.75,2.38.76,4.03v1.94s-11.44,3.03-11.44,3.03v-2.12s9.39-2.49,9.39-2.49v-.16c0-1.68-.38-2.88-1.12-3.6-.74-.72-1.78-.91-3.13-.55-1.48.39-2.61,1.18-3.41,2.36-.8,1.18-1.2,2.66-1.19,4.44v2.16c.01,1.7.45,2.9,1.3,3.61s2.06.85,3.62.44c.73-.19,1.46-.55,2.17-1.07s1.35-1.15,1.91-1.9l1.5,1.14c-.77,1.01-1.64,1.87-2.62,2.57s-1.96,1.18-2.96,1.45c-1.46.39-2.72.42-3.76.1Z"/>
      <path class="cls-9" d="m298.19,433.77l2.2-.58.06,16.96-2.2.58-.06-16.96Zm8.1.08c-.49-.05-1.07,0-1.72.18-1.32.35-2.35,1-3.08,1.95-.73.95-1.09,2.1-1.09,3.44l-.33-3.18c.58-1.17,1.33-2.16,2.27-2.97.94-.81,1.97-1.36,3.09-1.66.72-.19,1.38-.25,1.96-.18.59.07,1.1.26,1.54.58l-1.41,2.34c-.33-.27-.74-.44-1.23-.49Z"/>
      <path class="cls-9" d="m317.68,444.04c-1.08-.9-1.62-2.42-1.63-4.54l-.04-10.8c0-2.13.53-3.94,1.6-5.4,1.07-1.47,2.64-2.48,4.71-3.02s3.65-.38,4.73.51c1.08.89,1.62,2.41,1.63,4.56l.04,10.8c0,2.14-.53,3.94-1.6,5.4-1.07,1.47-2.64,2.48-4.71,3.02s-3.65.37-4.73-.53Zm7.84-3.67c.67-.97,1-2.18,1-3.64l-.04-10.8c0-1.47-.34-2.51-1.02-3.12s-1.72-.72-3.13-.35-2.46,1.04-3.12,2.01-1,2.18-1,3.65l.04,10.8c0,1.46.34,2.5,1.02,3.11.67.61,1.72.73,3.13.36s2.46-1.05,3.12-2.01Z"/>
      <path class="cls-9" d="m340.17,427.81v.59c-.24.55-.65,1.03-1.27,1.43-.61.4-1.34.71-2.17.94-1.15.3-2.16.28-3.04-.06-.88-.35-1.56-.98-2.04-1.9-.48-.92-.73-2.08-.73-3.46v-.02c0-1.54.23-2.91.71-4.13.48-1.22,1.18-2.23,2.11-3.05.93-.81,2.04-1.39,3.35-1.74s2.42-.35,3.34-.02c.93.33,1.64.98,2.12,1.96.49.97.73,2.23.74,3.78v.02c0,.85-.1,1.78-.3,2.8-.2,1.02-.49,2.05-.86,3.1-.06.16-.12.32-.18.48s-.13.33-.2.49l-4.69,11.43-2.44.65,5.54-13.28Zm-.1-1.43c.69-1.03,1.03-2.32,1.02-3.87v-.02c0-1.56-.36-2.67-1.06-3.35-.7-.68-1.68-.85-2.94-.51s-2.25,1.03-2.95,2.07c-.69,1.05-1.04,2.35-1.03,3.92v.02c0,1.55.36,2.65,1.06,3.31.7.66,1.69.82,2.96.48s2.25-1.02,2.94-2.06Z"/>
      <path class="cls-9" d="m345.6,435.5l2.5-.66v4.15s-2.48,3.64-2.48,3.64l-.03-7.12Z"/>
      <path class="cls-9" d="m356.98,433.25l8.3-13.91c.55-.91.97-1.77,1.27-2.58.3-.81.45-1.51.44-2.07v-.03c0-1.26-.35-2.15-1.03-2.66-.68-.51-1.65-.6-2.89-.27-1.16.31-2.1.93-2.81,1.86-.71.93-1.15,2.1-1.31,3.5v.02s-2.3.61-2.3.61v-.02c.18-1.41.55-2.67,1.11-3.79s1.29-2.04,2.18-2.79c.89-.74,1.92-1.27,3.09-1.58,1.32-.35,2.45-.41,3.39-.17.94.24,1.65.75,2.14,1.55.49.8.74,1.85.74,3.16v.02c0,.74-.2,1.64-.59,2.71-.4,1.07-.96,2.19-1.68,3.39l-7.3,12.06,9.75-2.58v2.19s-12.5,3.32-12.5,3.32v-1.91Z"/>
      <path class="cls-9" d="m373.2,429.33c-1.08-.9-1.62-2.42-1.63-4.54l-.04-10.8c0-2.13.53-3.94,1.6-5.4,1.07-1.47,2.64-2.48,4.71-3.02s3.65-.38,4.73.51c1.08.89,1.62,2.41,1.63,4.56l.04,10.8c0,2.14-.53,3.94-1.6,5.4-1.07,1.47-2.64,2.48-4.71,3.02s-3.65.37-4.73-.53Zm7.84-3.67c.67-.97,1-2.18,1-3.64l-.04-10.8c0-1.47-.34-2.51-1.02-3.12s-1.72-.72-3.13-.35-2.46,1.04-3.12,2.01-1,2.18-1,3.65l.04,10.8c0,1.46.34,2.5,1.02,3.11.67.61,1.72.73,3.13.36s2.46-1.05,3.12-2.01Z"/>
      <path class="cls-9" d="m386.62,425.39l8.3-13.91c.55-.91.97-1.77,1.27-2.58.3-.81.45-1.51.44-2.07v-.03c0-1.26-.35-2.15-1.03-2.66-.68-.51-1.65-.6-2.89-.27-1.16.31-2.1.93-2.81,1.86-.71.93-1.15,2.1-1.31,3.5v.02s-2.3.61-2.3.61v-.02c.18-1.41.55-2.67,1.11-3.79s1.29-2.04,2.18-2.79c.89-.74,1.92-1.27,3.09-1.58,1.32-.35,2.45-.41,3.39-.17.94.24,1.65.75,2.14,1.55.49.8.74,1.85.74,3.16v.02c0,.74-.2,1.64-.59,2.71-.4,1.07-.96,2.19-1.68,3.39l-7.3,12.06,9.75-2.58v2.19s-12.5,3.32-12.5,3.32v-1.91Z"/>
      <path class="cls-9" d="m403.69,422.32c-.95-.22-1.71-.7-2.29-1.45-.58-.75-.95-1.73-1.1-2.95l2.21-.59c.12.76.38,1.38.77,1.84.39.46.9.76,1.52.89s1.35.08,2.16-.13c1.32-.35,2.35-1,3.07-1.95.72-.95,1.08-2.12,1.08-3.5v-.72c0-1.34-.36-2.28-1.07-2.83s-1.69-.66-2.96-.32l-1.57.42v-2.19s1.56-.42,1.56-.42c1.16-.31,2.06-.87,2.69-1.68.63-.81.95-1.8.94-2.97v-.74c0-1.25-.34-2.13-1.01-2.64-.67-.5-1.61-.6-2.82-.27-.68.18-1.3.49-1.84.91-.55.43-1.01.96-1.39,1.6-.38.64-.65,1.36-.82,2.16l-2.2.58c.2-1.27.58-2.42,1.14-3.44.56-1.02,1.28-1.88,2.14-2.56s1.86-1.18,2.97-1.47c1.91-.51,3.39-.36,4.45.44,1.05.8,1.58,2.18,1.59,4.14v.72c0,1.11-.24,2.14-.73,3.1-.49.95-1.19,1.74-2.09,2.36,1.02,0,1.81.38,2.37,1.17.56.79.85,1.91.85,3.36v.72c0,1.38-.24,2.63-.73,3.74-.5,1.11-1.22,2.05-2.17,2.81-.95.76-2.1,1.32-3.44,1.68-1.24.33-2.34.38-3.28.17Z"/>
      <path class="cls-9" d="m417.68,417.12c-.91-2.37-1.37-5.13-1.38-8.28s.43-6.15,1.32-8.99c.89-2.85,2.24-5.56,4.04-8.14l1.47,1c-1.61,2.35-2.81,4.82-3.61,7.41-.8,2.59-1.19,5.32-1.18,8.19.01,2.87.42,5.38,1.23,7.55.81,2.17,2.03,4,3.66,5.48l-1.46,1.78c-1.82-1.62-3.18-3.62-4.09-5.99Z"/>
      <path class="cls-9" d="m428.7,416.07c-.96.04-1.85-.05-2.68-.27-.83-.22-1.61-.55-2.33-1.02l1.32-2.21c.93.63,1.95,1.01,3.07,1.15,1.12.14,2.34.03,3.65-.31,1.9-.5,3.37-1.3,4.41-2.38,1.04-1.08,1.56-2.35,1.55-3.81v-.02c0-.9-.23-1.57-.69-1.99-.45-.42-1.04-.68-1.76-.76-.72-.08-1.64-.09-2.77-.02-.03,0-.06,0-.1,0-.04,0-.07,0-.11,0l-.44.02c-1.56.1-2.8.1-3.74,0-.94-.09-1.74-.47-2.39-1.12-.66-.65-.99-1.7-1-3.16v-.02c0-1.47.3-2.81.91-4.01.61-1.2,1.51-2.23,2.68-3.09,1.18-.86,2.6-1.51,4.25-1.95.78-.21,1.56-.32,2.33-.34.77-.02,1.53.06,2.28.22.75.17,1.49.43,2.23.79l-1.29,2.19c-.96-.47-1.9-.75-2.81-.87-.92-.11-1.82-.05-2.72.19-1.81.48-3.21,1.26-4.21,2.34-.99,1.08-1.49,2.36-1.48,3.84v.02c0,.89.25,1.53.76,1.92.5.39,1.12.61,1.86.66.74.06,1.75.05,3.03-.02.04,0,.08,0,.13,0,.05,0,.09,0,.15,0,.06,0,.12,0,.18,0,.06,0,.11,0,.18,0,1.39-.06,2.56-.02,3.48.12.93.15,1.7.56,2.32,1.23.62.67.93,1.71.94,3.13v.03c0,1.45-.31,2.77-.95,3.97s-1.56,2.23-2.78,3.09c-1.21.86-2.68,1.52-4.4,1.98-1.07.28-2.08.44-3.04.48Z"/>
      <path class="cls-9" d="m442.89,411.26c-1.02-.65-1.53-1.8-1.54-3.47s.46-2.96,1.38-4.09c.93-1.12,2.24-1.91,3.94-2.36l5.26-1.4.22,2.13-5.46,1.45c-1.02.27-1.8.73-2.35,1.37-.55.64-.83,1.42-.82,2.32,0,.96.35,1.61,1.05,1.95.7.34,1.68.35,2.96,0,1.36-.36,2.42-.79,3.17-1.28.75-.49,1.13-1.01,1.12-1.54l.33,2.14c-.31.43-.72.84-1.21,1.23-.49.39-1.06.73-1.69,1.03-.64.3-1.32.55-2.05.74-1.85.49-3.29.41-4.31-.23Zm8.91-11.99c0-1.37-.35-2.35-1.04-2.92-.69-.57-1.66-.7-2.93-.36-.75.2-1.49.53-2.21.98-.72.45-1.36.99-1.92,1.62l-1.61-.75c.6-.93,1.39-1.74,2.37-2.43.98-.69,2.07-1.19,3.27-1.51,1.31-.35,2.44-.4,3.37-.15.94.25,1.65.78,2.14,1.59.49.81.74,1.88.74,3.21l.04,10.9-2.2.58-.04-10.75Z"/>
      <path class="cls-9" d="m455.6,392.04l7.14-1.89v2.03s-7.13,1.89-7.13,1.89v-2.03Zm2.58,15.24c-.6-.6-.9-1.64-.9-3.12l-.06-17.48,2.2-.58.06,17.52c0,.73.16,1.25.46,1.56s.76.39,1.36.23l1.5-.4v2.19s-1.79.48-1.79.48c-1.28.34-2.22.21-2.82-.39Z"/>
      <path class="cls-9" d="m463.75,410.59c1.62-2.35,2.83-4.82,3.62-7.41.79-2.59,1.18-5.32,1.17-8.18s-.42-5.38-1.23-7.55c-.81-2.17-2.03-3.99-3.65-5.48l1.46-1.78c1.82,1.62,3.18,3.62,4.09,5.99.91,2.37,1.37,5.13,1.38,8.28s-.43,6.15-1.32,8.99-2.24,5.56-4.04,8.14l-1.47-1Z"/>
    </g>
    <path class="cls-1" d="m1491.37,1193.73L335.21,802.17c-2.62-.89-5.71-.53-8.38.19l-15.95,4.28-123.2,33.04,16.09,5.03c4.49,1.4,9.29,1.51,13.84.3l112.69-29.83c2.08-.55,4.28-.48,6.32.21l1152.04,390.03,2.71-11.69Z"/>
    <g>
      <path class="cls-9" d="m177.16,511.34l2.12-.58-.13,22.59-2.12.58.13-22.59Zm1.37,9.96l12.76-3.49v2.16s-12.77,3.49-12.77,3.49v-2.16Zm11.67-13.53l2.12-.58-.13,22.59-2.12.58.13-22.59Z"/>
      <path class="cls-9" d="m199.82,527.08c-1-.29-1.76-.91-2.27-1.84-.52-.94-.77-2.17-.76-3.69v-1.82c.02-1.6.28-3.03.79-4.29.51-1.27,1.25-2.33,2.21-3.18.96-.85,2.12-1.47,3.48-1.84,1.27-.35,2.36-.36,3.26-.02.9.33,1.58.99,2.05,1.98.47.98.7,2.26.69,3.82v1.85s-11.04,3.02-11.04,3.02v-2.02s9.08-2.48,9.08-2.48v-.16c.01-1.59-.34-2.73-1.04-3.41-.71-.68-1.71-.84-3-.49-1.42.39-2.52,1.15-3.3,2.28-.78,1.13-1.18,2.55-1.19,4.23v2.05c-.02,1.62.38,2.75,1.2,3.42s1.98.78,3.48.37c.71-.19,1.41-.54,2.1-1.04.69-.5,1.31-1.11,1.85-1.83l1.43,1.07c-.75.97-1.6,1.8-2.54,2.47-.94.68-1.9,1.15-2.86,1.41-1.41.39-2.62.43-3.61.14Z"/>
      <path class="cls-9" d="m214.08,522.72c-.98-.6-1.46-1.7-1.45-3.28,0-1.52.47-2.82,1.37-3.9.9-1.08,2.17-1.84,3.81-2.29l5.08-1.39.19,2.03-5.27,1.44c-.98.27-1.74.71-2.28,1.33-.54.62-.81,1.36-.81,2.22,0,.91.33,1.53,1,1.85.67.32,1.62.31,2.84-.02,1.31-.36,2.33-.78,3.06-1.26.73-.48,1.09-.97,1.1-1.48l.3,2.03c-.31.41-.7.81-1.17,1.18-.48.37-1.02.71-1.64,1-.61.29-1.27.53-1.98.73-1.79.49-3.17.43-4.14-.17Zm8.67-11.51c0-1.31-.32-2.23-.97-2.77-.66-.54-1.6-.64-2.81-.31-.73.2-1.44.52-2.14.96-.7.44-1.32.96-1.86,1.56l-1.54-.7c.58-.89,1.35-1.67,2.3-2.34.95-.67,2-1.16,3.16-1.48,1.27-.35,2.35-.41,3.25-.18.9.22,1.58.72,2.05,1.49.47.77.69,1.78.69,3.05l-.06,10.36-2.12.58.06-10.22Z"/>
      <path class="cls-9" d="m229.47,503.48l2.12-.58-.1,16.13-2.12.58.1-16.13Zm7.79-.02c-.48-.05-1.03.02-1.65.19-1.27.35-2.27.98-2.98,1.89-.71.91-1.07,2.01-1.08,3.28l-.29-3.02c.56-1.12,1.3-2.07,2.21-2.85.91-.78,1.91-1.32,2.98-1.62.7-.19,1.33-.26,1.89-.2.56.06,1.05.24,1.47.54l-1.38,2.24c-.31-.26-.71-.41-1.18-.45Z"/>
      <path class="cls-9" d="m241.15,500.29l6.89-1.88v1.93s-6.9,1.88-6.9,1.88v-1.93Zm2.35,14.46c-.57-.56-.85-1.55-.84-2.96l.1-16.63,2.12-.58-.1,16.66c0,.69.14,1.19.43,1.48.29.29.73.36,1.31.2l1.44-.39v2.08s-1.75.47-1.75.47c-1.24.34-2.14.23-2.71-.34Z"/>
      <path class="cls-9" d="m254.52,512.14c-.94-.29-1.65-.89-2.14-1.81-.49-.92-.73-2.12-.72-3.6l.02-2.63c0-1.46.26-2.78.76-3.96.5-1.18,1.23-2.17,2.17-2.97.94-.8,2.08-1.38,3.4-1.75,1.32-.36,2.45-.4,3.39-.11.94.29,1.65.88,2.14,1.79.49.91.73,2.09.72,3.55l-.02,2.67c0,1.47-.26,2.8-.76,3.97-.5,1.18-1.22,2.17-2.17,2.97-.95.81-2.08,1.39-3.4,1.75-1.32.36-2.46.4-3.39.11Zm6.5-4.31c.74-1.06,1.11-2.36,1.12-3.91l.02-2.67c0-1.54-.35-2.64-1.07-3.29-.73-.65-1.76-.79-3.09-.43-1.32.36-2.35,1.07-3.08,2.11-.73,1.05-1.1,2.34-1.11,3.89l-.02,2.67c0,1.55.35,2.66,1.07,3.32.72.66,1.74.8,3.07.44,1.33-.36,2.37-1.07,3.1-2.13Z"/>
      <path class="cls-9" d="m268.58,492.78l2.12-.58-.1,16.13-2.12.58.1-16.13Zm10.11,3.58c0-1.43-.34-2.44-1.05-3.03-.71-.59-1.71-.71-3-.36-1.26.34-2.23.96-2.93,1.85-.7.89-1.05,1.97-1.06,3.26l-.29-3.02c.55-1.2,1.27-2.16,2.16-2.88.9-.71,1.93-1.23,3.11-1.56,1.66-.45,2.94-.23,3.84.67.9.9,1.34,2.39,1.33,4.48l-.06,9.79-2.12.58.06-9.77Z"/>
      <path class="cls-9" d="m293.83,479.42l2.12-.58-.13,22.59-2.12.58.13-22.59Zm1.37,9.96l12.76-3.49v2.16s-12.77,3.49-12.77,3.49v-2.16Zm11.67-13.53l2.12-.58-.13,22.59-2.12.58.13-22.59Z"/>
      <path class="cls-9" d="m316.31,495.24c-.94-.29-1.65-.89-2.14-1.81s-.73-2.12-.72-3.6l.02-2.63c0-1.46.26-2.78.77-3.96s1.23-2.17,2.17-2.97c.94-.8,2.08-1.38,3.4-1.75,1.32-.36,2.46-.4,3.39-.11.94.29,1.65.88,2.14,1.79.49.91.73,2.09.72,3.55l-.02,2.67c0,1.47-.26,2.8-.77,3.97-.5,1.18-1.22,2.17-2.17,2.97-.94.81-2.08,1.39-3.4,1.75-1.32.36-2.46.4-3.39.11Zm6.5-4.31c.74-1.06,1.11-2.36,1.12-3.91l.02-2.67c0-1.54-.35-2.64-1.08-3.29-.73-.65-1.75-.79-3.09-.43-1.32.36-2.35,1.07-3.08,2.12-.73,1.05-1.1,2.34-1.11,3.89l-.02,2.67c0,1.55.35,2.66,1.07,3.32.72.66,1.74.8,3.07.44,1.33-.36,2.37-1.07,3.1-2.13Z"/>
      <path class="cls-9" d="m329.19,476.2l6.88-1.88v1.93s-6.9,1.88-6.9,1.88v-1.93Zm2.34,14.46c-.57-.56-.85-1.55-.84-2.96l.1-16.63,2.12-.58-.1,16.66c0,.69.14,1.19.43,1.48.29.29.73.36,1.31.2l1.44-.39v2.08s-1.75.48-1.75.48c-1.24.34-2.14.23-2.71-.34Z"/>
      <path class="cls-9" d="m342.74,487.98c-1-.29-1.75-.91-2.27-1.84-.52-.94-.77-2.17-.76-3.69v-1.82c.02-1.6.28-3.03.79-4.29.51-1.27,1.25-2.33,2.21-3.18.96-.85,2.12-1.47,3.48-1.84,1.27-.35,2.36-.36,3.26-.02.9.33,1.58.99,2.05,1.98.47.98.7,2.26.69,3.82v1.85s-11.05,3.02-11.05,3.02v-2.02s9.07-2.48,9.07-2.48v-.16c.01-1.59-.34-2.73-1.04-3.41-.71-.68-1.71-.84-3-.49-1.42.39-2.52,1.15-3.3,2.28-.78,1.13-1.18,2.55-1.19,4.23v2.05c-.02,1.62.38,2.75,1.2,3.41.82.66,1.98.78,3.48.37.71-.19,1.41-.54,2.1-1.04.69-.5,1.31-1.11,1.85-1.83l1.43,1.07c-.75.97-1.6,1.79-2.54,2.47s-1.9,1.15-2.86,1.41c-1.41.39-2.62.43-3.61.14Z"/>
      <path class="cls-9" d="m358.4,480.08c0,.68.15,1.17.47,1.46.32.29.76.36,1.33.2l1.41-.39v2.08s-1.78.48-1.78.48c-1.14.31-2.02.18-2.63-.4-.62-.57-.92-1.54-.92-2.9l.11-18.32,2.12-.58-.11,18.35Z"/>
      <path class="cls-9" d="m376.86,479.18c-.92.05-1.78-.03-2.58-.22-.8-.2-1.54-.51-2.23-.94l1.29-2.12c.89.59,1.87.94,2.95,1.06,1.08.12,2.25,0,3.51-.34,1.83-.5,3.26-1.27,4.27-2.31,1.01-1.04,1.52-2.26,1.53-3.65v-.02c0-.86-.21-1.49-.64-1.89-.43-.4-1-.63-1.69-.7-.69-.07-1.58-.06-2.67.02-.03,0-.06,0-.09,0-.04,0-.07,0-.11,0l-.43.02c-1.5.11-2.7.13-3.6.05-.9-.08-1.66-.42-2.29-1.03-.63-.61-.94-1.61-.93-3v-.02c0-1.4.31-2.67.91-3.82.6-1.15,1.47-2.14,2.61-2.97,1.14-.83,2.51-1.46,4.11-1.9.75-.21,1.5-.32,2.24-.35.74-.03,1.47.04,2.19.19.72.15,1.43.39,2.13.73l-1.26,2.1c-.92-.43-1.82-.7-2.7-.79-.88-.09-1.75-.02-2.62.21-1.75.48-3.1,1.24-4.07,2.28-.97,1.04-1.45,2.26-1.46,3.67v.02c0,.85.23,1.45.71,1.81.48.36,1.07.56,1.78.61s1.68.03,2.92-.05c.04,0,.08,0,.12,0,.04,0,.09,0,.14,0,.06,0,.12,0,.17,0,.05,0,.11,0,.17,0,1.34-.08,2.46-.05,3.35.08.89.13,1.63.51,2.22,1.14.59.63.88,1.62.87,2.97v.03c0,1.38-.32,2.64-.95,3.79-.62,1.15-1.52,2.14-2.7,2.97-1.18.83-2.59,1.48-4.25,1.93-1.03.28-2.01.45-2.93.49Z"/>
      <path class="cls-9" d="m391.75,452.63l2.12-.58-.13,22.59-2.12.58.13-22.59Zm10.08,10.04c0-1.43-.34-2.44-1.05-3.03-.71-.59-1.71-.71-3-.36-1.26.34-2.23.96-2.93,1.85-.7.89-1.05,1.98-1.05,3.26l-.29-3.02c.55-1.2,1.27-2.16,2.16-2.88.9-.72,1.93-1.23,3.11-1.56,1.66-.45,2.94-.23,3.84.67.9.9,1.34,2.39,1.33,4.48l-.06,9.79-2.12.58.06-9.77Z"/>
      <path class="cls-9" d="m408.99,454.37l2.12-.58-.1,16.13-2.12.58.1-16.13Zm.04-6.46l2.12-.58v2.24s-2.13.58-2.13.58v-2.24Z"/>
      <path class="cls-9" d="m416.11,452.42l2.12-.58-.1,16.13-2.12.58.1-16.13Zm10.11,3.58c0-1.43-.34-2.44-1.05-3.03-.71-.59-1.71-.71-3-.36-1.26.34-2.23.96-2.93,1.85-.7.89-1.05,1.98-1.05,3.26l-.29-3.02c.55-1.2,1.27-2.16,2.16-2.88.9-.71,1.93-1.23,3.11-1.56,1.66-.45,2.94-.23,3.84.67.9.9,1.34,2.39,1.33,4.48l-.06,9.79-2.12.58.06-9.77Z"/>
      <path class="cls-9" d="m435.7,463.14c-.77.04-1.5-.01-2.17-.16-.67-.15-1.26-.38-1.78-.71l1.23-1.9c.83.36,1.69.58,2.58.67.89.08,1.74.01,2.54-.21,1.46-.4,2.59-.97,3.4-1.72.8-.75,1.21-1.6,1.21-2.57,0-.71-.19-1.18-.57-1.43-.39-.25-.87-.35-1.46-.31-.59.04-1.41.16-2.46.36-.1.02-.2.04-.3.06-.1.02-.2.04-.3.06-.04.01-.08.02-.12.02-.04,0-.08.01-.12.02-1.01.17-1.85.25-2.53.23-.68-.02-1.24-.26-1.69-.7-.45-.44-.68-1.21-.67-2.28,0-1.04.25-1.98.73-2.84.48-.86,1.18-1.6,2.1-2.23.92-.63,2.02-1.13,3.31-1.48.67-.18,1.33-.29,2-.34.67-.04,1.3-.02,1.92.08.61.1,1.17.26,1.68.49l-1.23,1.87c-.72-.25-1.48-.38-2.26-.41-.78-.03-1.52.05-2.21.24-1.28.35-2.28.88-2.99,1.58-.71.7-1.07,1.51-1.07,2.43,0,.64.19,1.07.57,1.28.38.21.86.29,1.44.23.58-.06,1.38-.19,2.4-.41.04-.01.08-.02.13-.03.04,0,.09-.02.12-.03.03,0,.06-.02.09-.02.03,0,.06-.01.09,0,1.07-.23,1.98-.34,2.73-.33.75.01,1.38.27,1.88.77.51.5.76,1.36.75,2.57,0,1.05-.27,2.01-.78,2.88-.51.88-1.26,1.64-2.25,2.3-.98.66-2.17,1.17-3.55,1.55-.82.23-1.62.36-2.4.4Z"/>
      <path class="cls-9" d="m449.21,458.4c-.98-.6-1.46-1.7-1.45-3.28,0-1.52.46-2.82,1.37-3.9.9-1.08,2.17-1.84,3.81-2.29l5.08-1.39.19,2.03-5.27,1.44c-.98.27-1.74.71-2.28,1.33-.54.62-.81,1.36-.81,2.22,0,.91.33,1.53,1,1.85.67.32,1.62.31,2.84-.02,1.31-.36,2.33-.78,3.06-1.26.73-.48,1.09-.97,1.1-1.48l.3,2.03c-.31.41-.7.81-1.17,1.18-.48.37-1.02.71-1.64,1-.61.29-1.27.54-1.98.73-1.78.49-3.17.43-4.14-.17Zm8.68-11.51c0-1.31-.32-2.23-.98-2.77-.66-.54-1.59-.64-2.81-.31-.73.2-1.44.52-2.13.96-.7.44-1.32.96-1.86,1.56l-1.54-.7c.58-.89,1.35-1.67,2.3-2.34.95-.67,2-1.16,3.16-1.48,1.27-.35,2.35-.41,3.25-.18.9.22,1.58.72,2.05,1.49.47.77.69,1.78.69,3.05l-.06,10.36-2.12.58.06-10.22Z"/>
      <path class="cls-9" d="m465.04,439.03l2.12-.58-.1,16.13-2.12.58.1-16.13Zm.04-6.46l2.12-.58v2.24s-2.13.58-2.13.58v-2.24Z"/>
      <path class="cls-9" d="m472.2,430.62l2.12-.58-.13,22.59-2.12.58.13-22.59Zm3.61,21.16c-.83-.2-1.43-.74-1.81-1.62l.23-3.43c0,.71.15,1.34.46,1.9.31.56.76.96,1.34,1.21s1.27.26,2.06.04c1.27-.35,2.26-1.02,2.96-2.01.7-.99,1.06-2.21,1.06-3.67l.02-3.5c0-1.48-.33-2.53-1.02-3.16-.69-.62-1.68-.76-2.95-.41-.79.21-1.47.6-2.06,1.16-.59.56-1.05,1.2-1.36,1.92-.32.72-.48,1.42-.48,2.12l-.29-3.02c.54-1.19,1.24-2.14,2.12-2.84.88-.7,1.91-1.21,3.07-1.53,1.08-.29,2-.29,2.77.01.77.3,1.35.89,1.75,1.76.4.88.59,2.01.58,3.39l-.02,3.51c0,1.37-.22,2.6-.64,3.68-.42,1.09-1.03,1.99-1.82,2.72-.8.73-1.75,1.25-2.86,1.55-1.24.34-2.27.41-3.1.21Z"/>
      <path class="cls-9" d="m489.2,447.46c-.98-.6-1.46-1.7-1.45-3.28,0-1.52.46-2.82,1.37-3.9.9-1.08,2.17-1.84,3.81-2.29l5.08-1.39.19,2.03-5.27,1.44c-.98.27-1.74.71-2.28,1.33-.54.62-.81,1.36-.81,2.22,0,.91.33,1.53,1,1.85.67.32,1.62.31,2.84-.02,1.31-.36,2.33-.78,3.06-1.26.73-.48,1.09-.97,1.1-1.48l.3,2.03c-.31.41-.7.81-1.17,1.18-.48.37-1.02.71-1.64,1s-1.27.53-1.98.73c-1.79.49-3.17.43-4.14-.17Zm8.68-11.51c0-1.31-.32-2.23-.98-2.77-.66-.54-1.6-.64-2.81-.31-.73.2-1.44.52-2.13.96-.7.44-1.32.96-1.86,1.56l-1.54-.7c.58-.89,1.35-1.67,2.3-2.34.95-.67,2-1.16,3.16-1.48,1.27-.35,2.35-.41,3.25-.18.9.22,1.58.72,2.05,1.49.47.77.69,1.78.69,3.05l-.06,10.36-2.12.58.06-10.22Z"/>
      <path class="cls-9" d="m507.34,443.54c-.77.04-1.5-.01-2.17-.16-.67-.15-1.26-.38-1.78-.71l1.23-1.9c.83.36,1.69.58,2.58.67.89.08,1.74.01,2.54-.21,1.46-.4,2.59-.97,3.4-1.72.8-.75,1.21-1.6,1.21-2.57,0-.71-.19-1.18-.57-1.43-.39-.25-.87-.35-1.46-.31-.59.04-1.41.16-2.46.36-.1.02-.2.04-.3.06-.1.02-.2.04-.3.06-.04.01-.08.02-.12.02-.04,0-.08.01-.12.02-1.01.17-1.85.25-2.53.23-.68-.02-1.24-.26-1.69-.7-.45-.44-.68-1.21-.67-2.28,0-1.04.25-1.98.73-2.84.48-.86,1.18-1.6,2.1-2.23.92-.63,2.02-1.13,3.31-1.48.67-.18,1.33-.29,2-.34.67-.04,1.3-.02,1.92.08.61.1,1.17.26,1.68.49l-1.23,1.87c-.72-.25-1.48-.38-2.26-.41-.78-.03-1.52.05-2.21.24-1.28.35-2.28.88-2.99,1.58-.71.7-1.07,1.51-1.07,2.43,0,.64.18,1.07.57,1.28.38.21.86.29,1.44.23.58-.06,1.38-.19,2.4-.41.04-.01.08-.02.13-.03.04,0,.09-.02.12-.03.03,0,.06-.02.09-.02s.06-.01.09,0c1.07-.23,1.98-.34,2.73-.33.75.01,1.38.27,1.88.77.51.5.76,1.36.75,2.57,0,1.05-.27,2.01-.78,2.88-.51.88-1.26,1.64-2.25,2.3-.98.66-2.17,1.17-3.55,1.55-.82.23-1.62.36-2.4.4Z"/>
      <path class="cls-9" d="m520.25,417.47l2.12-.58-.13,22.59-2.12.58.13-22.59Zm10.08,10.04c0-1.43-.34-2.44-1.05-3.03s-1.71-.71-3-.36c-1.26.34-2.23.96-2.93,1.85-.7.89-1.05,1.98-1.05,3.26l-.29-3.02c.55-1.2,1.27-2.16,2.16-2.88.9-.72,1.93-1.23,3.11-1.56,1.66-.45,2.94-.23,3.84.67s1.34,2.39,1.33,4.48l-.06,9.79-2.12.58.06-9.77Z"/>
      <path class="cls-9" d="m537.48,419.21l2.12-.58-.1,16.13-2.12.58.1-16.13Zm.04-6.46l2.12-.58v2.24s-2.13.58-2.13.58v-2.24Z"/>
      <path class="cls-9" d="m186.28,563.89l.38-.13.96-.15c0,.2-.03.41-.03.64-.37,7.53-.69,10.24-1.4,11.33-.6.88-1.07,1.1-3.04,1.64-.66.18-1.39.38-2.16.53-.05-.53-.24-1.2-.48-1.6,1.39-.24,2.76-.61,3.22-.74.49-.13.74-.26.96-.58.52-.72.84-3.05,1.12-9.06l-4.78,1.31c-.65,4.12-1.9,8.58-4.71,11.97-.27-.33-.84-.72-1.28-.92,3.62-4.27,4.45-10.95,4.78-15.94l-3.11.85.06-9.49,10.87-2.97-.06,9.49-5.92,1.62c-.11,1.1-.2,2.3-.38,3.56l5-1.37Zm-7.82-9l-.04,5.94,7.4-2.02.04-5.94-7.4,2.02Zm12.12-2.91l2.32-.49c-.03.21-.17.39-.52.55l-.09,15.57-1.8.49.1-16.12Zm6.87-4.84l2.35-.5c-.03.24-.17.39-.52.55l-.14,23.04c0,1.38-.39,2.09-1.21,2.64-.88.58-2.38,1.02-4.92,1.72-.11-.49-.4-1.3-.7-1.77,1.01-.25,1.94-.5,2.7-.71,2.18-.6,2.29-.63,2.3-1.38l.14-23.59Z"/>
      <path class="cls-9" d="m221.44,543.39l6.01-1.64-.03,4.58-1.69.46.02-2.94-10.21,2.79-.02,2.94-1.64.45v-2.51s-1.19,1.45-1.19,1.45c-.81-.99-2.44-2.3-3.99-3.32-.97,2.02-2.29,4.37-3.91,6.66l3.14-.86.02-2.86,2.1-.43c-.03.21-.17.36-.52.52v2.34s3.32-.91,3.32-.91l-.06,9.4-6.63,1.81-.03,5.48c1.28-.64,2.68-1.37,4.05-2.09-.62-.78-1.33-1.48-2-2.1l1.4-1.19c1.79,1.5,3.66,3.69,4.38,5.34l-1.48,1.33c-.3-.67-.78-1.43-1.35-2.22-2.84,1.58-5.77,3.19-7.63,4.19-.03.24-.17.42-.33.52l-.81-1.88c.6-.28,1.31-.65,2.08-1.03l.09-14.97c-.27.39-.55.76-.85,1.13-.33-.34-.9-.73-1.3-.85,2.53-3.05,4.43-6.65,5.51-9.28l2.18-.25c-.06.22-.22.41-.52.52,1.58.95,3.42,2.29,4.37,3.35v-1.87s5.77-1.58,5.77-1.58l.02-3.37,2.32-.46c-.03.21-.19.4-.55.52l-.02,2.83Zm-15.28,16.42l4.94-1.35v-2.48s-4.93,1.35-4.93,1.35v2.48Zm4.98-7.7l-4.94,1.35v2.36s4.93-1.35,4.93-1.35v-2.36Zm6.14,4.11v2.51s9.13-2.5,9.13-2.5l-.05,9-1.72.47v-1.21s-7.42,2.03-7.42,2.03v1.38s-1.7.46-1.7.46l.11-18.95,9.77-2.67-.04,7.27-8.08,2.21Zm7.4,2.15l-7.43,2.03-.03,4.41,7.43-2.03.03-4.41Zm-1.01-9.51l-6.36,1.74-.02,3.98,6.36-1.74.02-3.98Z"/>
      <path class="cls-9" d="m237.29,556.77l6.82-11.37c.39-.65.7-1.3.92-1.95.22-.65.33-1.22.34-1.73v-.03c0-.82-.22-1.39-.67-1.72-.45-.33-1.09-.38-1.93-.15-.79.22-1.43.64-1.92,1.26s-.79,1.4-.91,2.33h0s-2.81.78-2.81.78h0c.17-1.23.5-2.32,1-3.29.5-.97,1.14-1.77,1.92-2.42.78-.65,1.69-1.12,2.71-1.4,1.16-.32,2.14-.38,2.96-.18.82.19,1.43.63,1.86,1.31.42.68.63,1.59.62,2.71h0c0,.74-.15,1.53-.44,2.4-.29.87-.69,1.73-1.2,2.61l-5.66,9.59,7.33-2.01-.02,2.73-10.93,2.99v-2.49Z"/>
      <path class="cls-9" d="m252.2,534.74l2.72-.74-.12,20.48-2.72.74.12-20.48Zm1.28,8.76l9.4-2.57-.02,2.73-9.4,2.57.02-2.73Zm.05-9.12l10.87-2.97-.02,2.73-10.87,2.97.02-2.73Z"/>
      <path class="cls-9" d="m279.64,534.98c.87.77,3.25,3.34,3.82,3.99l-1.18,1.85c-.49-.82-1.68-2.39-2.65-3.57l-.08,13.55-1.77.49.08-14.36c-1.06,3.72-2.5,7.51-3.96,9.92-.19-.47-.65-1.12-1-1.45,1.9-3.02,3.84-8.28,4.76-12.65l-4.01,1.1v-1.82s4.24-1.16,4.24-1.16l.04-6.34,2.29-.46c-.03.21-.17.36-.52.52l-.03,5.8,3.69-1.01v1.82s-3.7,1.01-3.7,1.01l-.02,2.77Zm12.2-2.13c-.08.22-.33.41-.66.52-.95,3.48-2.5,8.4-3.89,12.03,2.51-.8,5.41-1.74,8.3-2.7-.89-1.6-1.97-3.26-3.03-4.62l1.59-1.24c1.87,2.4,3.92,5.67,4.75,7.83l-1.73,1.42c-.21-.57-.48-1.22-.83-1.9-4.67,1.62-9.53,3.3-12.51,4.31-.06.25-.22.41-.41.52l-.64-2.21,2.62-.83c1.44-3.73,3.08-9.28,3.95-13.23l2.48.1Zm-2.04-10.53c-.06.22-.25.38-.57.45-1.04,4.57-2.78,9.4-4.93,12.63-.35-.25-1.01-.65-1.44-.79,2.06-3.01,3.73-7.73,4.63-12.32l2.32.03Zm4.51-1.95c.99,3.62,2.95,7.54,4.69,9.4-.47.47-1.15,1.38-1.51,1.97-1.79-2.19-3.72-6.47-4.85-10.33l1.67-1.03Z"/>
      <path class="cls-9" d="m303.89,519.1l18.84-5.15c-.06,10.87-.08,23.11,1.64,22.64.36-.13.56-2.17.6-4.77.33.4.81.81,1.17,1-.21,3.89-.6,5.44-1.97,5.84-3.25.89-3.16-9.53-3.19-22.39l-15.34,4.2-.04,7.47c-.03,4.76-.5,11.54-3.7,16.88-.3-.29-1.03-.61-1.47-.72,3.06-5.07,3.39-11.15,3.42-15.68l.05-9.32Zm13.78,16.7c-.54-.72-1.14-1.42-1.73-2l1.48-.98c1.52,1.43,3.06,3.51,3.62,5.11l-1.59,1.07c-.19-.58-.54-1.26-.94-1.96-4.51,1.61-9.18,3.2-12.18,4.2-.03.24-.17.39-.36.5l-.67-1.98c1.8-.55,4.23-1.33,6.88-2.17l.03-4.33-4.86,1.33.05-7.93,4.86-1.33.02-2.71c-1.86.77-3.8,1.53-5.6,2.19-.08-.38-.29-.98-.51-1.33,4.29-1.63,9.26-3.77,12-5.44l1.58,1.01c-.08.11-.14.12-.55.24-1.29.75-2.95,1.56-4.78,2.4-.06.16-.19.28-.49.42l-.02,2.77,4.97-1.36-.05,7.93-4.97,1.36-.03,4.24,3.85-1.25Zm-8.81-3.2l3.36-.92.03-4.76-3.36.92-.03,4.76Zm8.41-7.05l-3.39.93-.03,4.76,3.39-.93.03-4.76Z"/>
      <path class="cls-9" d="m335.77,522.07c-1.28,3.72-3.1,7.24-5.21,9.98l-1.58-.66c1.98-2.53,3.88-5.81,4.99-9.51l1.8.2Zm5.84-6.09l-.08,13.73c-.02,3.23-2.42,3.86-6.49,4.91-.11-.49-.32-1.24-.59-1.74.63-.14,3.69-1.01,3.99-1.09.76-.21,1.12-.82,1.13-1.52l.08-13.76-9.28,2.54v-1.93s9.29-2.54,9.29-2.54l.03-5.91,2.59-.57c-.03.3-.22.58-.63.72l-.03,5.22,9.23-2.52v1.93s-9.24,2.52-9.24,2.52Zm4.87,2.3c1.98,1.79,4.25,4.54,5.71,6.82l-1.75,1.55c-1.32-2.29-3.7-5.32-5.52-7.01l1.56-1.35Z"/>
      <path class="cls-9" d="m356.37,514.94l22.8-6.24v2.05s-21.77,5.95-21.77,5.95c-.17.33-.52.63-.88.79l-.15-2.55Z"/>
      <path class="cls-9" d="m389.96,499.24c-.03.27-.28.51-.63.66-.21,7.8-.85,15.03-5.09,21.34-.43-.23-1.09-.48-1.63-.65,4.1-5.78,4.63-13.13,4.76-20.91l2.59-.45Zm6.97,14.68c4.57-3.58,7.55-8.6,9.16-14.08.41.26,1.22.53,1.69.66-1.97,6.36-5.38,11.58-11.22,16.08-.08.25-.27.54-.47.7l-1.41-1.51.3-.52.12-21.17,2.54-.55c-.03.27-.22.55-.6.71l-.12,19.67Z"/>
    </g>
    <text/>
  </g>
</svg>