<svg width="64" height="66" viewBox="0 0 64 66" fill="none" xmlns="http://www.w3.org/2000/svg">
<g id="github 1" clip-path="url(#clip0_48_31)">
<path id="Vector" d="M21.3855 51.2273C21.3855 51.4852 21.0891 51.6914 20.7152 51.6914C20.2898 51.7301 19.9934 51.5238 19.9934 51.2273C19.9934 50.9695 20.2898 50.7633 20.6637 50.7633C21.0504 50.7246 21.3855 50.9309 21.3855 51.2273ZM17.3766 50.6473C17.2863 50.9051 17.5441 51.2016 17.9309 51.2789C18.266 51.4078 18.6527 51.2789 18.7301 51.0211C18.8074 50.7633 18.5625 50.4668 18.1758 50.3508C17.8406 50.2606 17.4668 50.3895 17.3766 50.6473ZM23.0742 50.4281C22.7004 50.5184 22.4426 50.7633 22.4812 51.0598C22.5199 51.3176 22.8551 51.4852 23.2418 51.3949C23.6156 51.3047 23.8734 51.0598 23.8348 50.802C23.7961 50.557 23.448 50.3895 23.0742 50.4281ZM31.5562 1.03125C13.677 1.03125 0 14.6051 0 32.4844C0 46.7801 8.99766 59.0133 21.8496 63.3188C23.4996 63.6152 24.0797 62.5969 24.0797 61.759C24.0797 60.9598 24.041 56.5512 24.041 53.8441C24.041 53.8441 15.0176 55.7777 13.1227 50.0027C13.1227 50.0027 11.6531 46.2516 9.53906 45.2848C9.53906 45.2848 6.58711 43.2609 9.74531 43.2996C9.74531 43.2996 12.9551 43.5574 14.7211 46.6254C17.5441 51.6012 22.275 50.1703 24.1184 49.3195C24.4148 47.257 25.2527 45.8262 26.1809 44.9754C18.975 44.1762 11.7047 43.132 11.7047 30.7313C11.7047 27.1863 12.6844 25.4074 14.7469 23.1387C14.4117 22.3008 13.316 18.8461 15.082 14.3859C17.7762 13.548 23.9766 17.8664 23.9766 17.8664C26.5547 17.1445 29.3262 16.7707 32.0719 16.7707C34.8176 16.7707 37.5891 17.1445 40.1672 17.8664C40.1672 17.8664 46.3676 13.5352 49.0617 14.3859C50.8277 18.859 49.732 22.3008 49.3969 23.1387C51.4594 25.4203 52.7226 27.1992 52.7226 30.7313C52.7226 43.1707 45.1301 44.1633 37.9242 44.9754C39.1102 45.9938 40.1156 47.9273 40.1156 50.9566C40.1156 55.3008 40.0769 60.6762 40.0769 61.7332C40.0769 62.5711 40.6699 63.5895 42.307 63.293C55.1977 59.0133 63.9375 46.7801 63.9375 32.4844C63.9375 14.6051 49.4355 1.03125 31.5562 1.03125ZM12.5297 45.491C12.3621 45.6199 12.4008 45.9164 12.6199 46.1613C12.8262 46.3676 13.1227 46.4578 13.2902 46.2902C13.4578 46.1613 13.4191 45.8648 13.2 45.6199C12.9937 45.4137 12.6973 45.3234 12.5297 45.491ZM11.1375 44.4469C11.0473 44.6145 11.1762 44.8207 11.434 44.9496C11.6402 45.0785 11.898 45.0398 11.9883 44.8594C12.0785 44.6918 11.9496 44.4856 11.6918 44.3566C11.434 44.2793 11.2277 44.318 11.1375 44.4469ZM15.3141 49.0359C15.1078 49.2035 15.1852 49.5902 15.4816 49.8352C15.7781 50.1316 16.152 50.1703 16.3195 49.9641C16.4871 49.7965 16.4098 49.4098 16.152 49.1648C15.8684 48.8684 15.4816 48.8297 15.3141 49.0359ZM13.8445 47.141C13.6383 47.2699 13.6383 47.6051 13.8445 47.9016C14.0508 48.1981 14.3988 48.327 14.5664 48.1981C14.7727 48.0305 14.7727 47.6953 14.5664 47.3988C14.3859 47.1024 14.0508 46.9734 13.8445 47.141Z" fill="white"/>
</g>
<defs>
<clipPath id="clip0_48_31">
<rect width="63.9375" height="66" fill="white"/>
</clipPath>
</defs>
</svg>
