<svg width="274" height="263" viewBox="0 0 274 263" fill="none" xmlns="http://www.w3.org/2000/svg">
<g clip-path="url(#clip0_61_3)">
<path d="M274 121.884C274 107.123 268.431 93.2607 258.303 82.8281L258.085 82.6035L253.17 109.451C254.577 113.391 255.35 117.556 255.35 121.884C255.35 126.988 254.3 131.929 252.338 136.461L255.073 164.268L258.303 160.94C268.431 150.507 274 136.645 274 121.884Z" fill="#C91818"/>
<path d="M161.705 233.233C148.069 247.28 125.911 247.28 112.276 233.233L105.047 225.73L84.1289 231.449L99.0562 246.83C109.184 257.263 122.641 263 136.97 263C151.3 263 164.757 257.263 174.884 246.83L188.877 232.417L168.384 226.333L161.685 233.233H161.705Z" fill="#C91818"/>
<path d="M70.2772 26.5701L36.1898 61.7179L38.6276 86.4009L90.7322 32.727L70.2772 26.5701Z" fill="#C91818"/>
<path d="M32.2845 177.783L69.2636 215.863L89.885 210.124L36.4663 154.897L32.2845 177.783Z" fill="#C91818"/>
<path d="M203.999 216.88L238.13 181.741L235.686 157.033L183.506 210.796L203.999 216.88Z" fill="#C91818"/>
<path d="M242.091 66.1276L204.672 27.5498L183.998 33.3771L237.909 89.014L242.091 66.1276Z" fill="#C91818"/>
<path d="M18.6697 121.884C18.6697 116.617 19.7994 111.533 21.8804 106.878L19.1651 79.2756L15.7166 82.828C5.56919 93.2606 0 107.123 0 121.884C0 136.645 5.56919 150.507 15.6968 160.94L16.0733 161.328L20.9489 134.664C19.4624 130.642 18.6498 126.335 18.6498 121.904L18.6697 121.884Z" fill="#C91818"/>
<path d="M148.584 43.2412L184.08 33.5844L168.8 17.8436L143.808 24.6421C139.408 25.8467 134.77 25.7854 130.41 24.4992L105.815 17.2107L90.7322 32.7473L125.257 42.9758C132.868 45.242 140.934 45.3236 148.604 43.2412H148.584Z" fill="#C91818"/>
<path d="M41.541 116.004L38.6362 86.3076L28.9162 96.4047C25.9433 99.4671 23.6046 103.019 21.8804 106.858L22.9704 117.923C23.2082 120.394 23.1091 122.905 22.6533 125.355L20.9489 134.644C22.6731 139.34 25.3487 143.668 28.8963 147.343L36.2493 154.917L41.0059 128.948C41.7788 124.681 41.9572 120.332 41.541 116.025V116.004Z" fill="#FEFDFD"/>
<path d="M237.909 89.0142L233.232 114.596C232.459 118.862 232.281 123.211 232.697 127.519L235.61 157.122L245.104 147.343C248.195 144.158 250.613 140.463 252.338 136.461L251.267 125.6C251.03 123.129 251.129 120.618 251.565 118.168L253.225 109.196C251.5 104.358 248.839 99.5204 245.192 95.7843L238.312 87.0474L237.909 89.0142Z" fill="#FEFDFD"/>
<path d="M35.3772 53.3676C34.525 44.6499 37.7753 36.4427 44.2958 30.8283C50.8163 25.2138 59.2395 23.3764 67.405 25.8059L70.2193 26.643L94.5573 13.8421L72.558 7.32935C58.5458 3.18489 43.5031 6.45146 32.3052 16.0674C21.1074 25.6834 15.3202 40.3626 16.7868 55.3071L19.1453 79.2552L36.1898 61.6974L35.3772 53.3676Z" fill="#FEFDFD"/>
<path d="M238.841 190.155C239.693 198.873 236.443 207.08 229.922 212.695C223.402 218.309 214.979 220.126 206.813 217.717L203.999 216.88L188.916 232.417L201.66 236.194C205.664 237.378 209.746 237.97 213.809 237.97C223.957 237.97 233.906 234.336 241.913 227.456C253.111 217.84 258.898 203.16 257.431 188.216L255.073 164.268L238.032 181.84L238.841 190.155Z" fill="#FEFDFD"/>
<path d="M212.928 25.762C221.331 23.4754 230.151 25.762 236.532 31.846C242.894 37.9504 245.748 46.8518 244.123 55.6511L242.103 66.6176L258.074 82.3809L262.456 59.2035C265.27 43.871 260.315 28.3752 249.237 17.7589C238.158 7.14251 222.798 3.18179 208.151 7.16292L182.922 14.0431L204.961 27.8438L212.908 25.762H212.928Z" fill="#FEFDFD"/>
<path d="M136.851 198.792C133.086 198.792 129.32 199.281 125.634 200.282L89.8007 210.041L105.081 225.782L130.43 218.881C134.83 217.676 139.467 217.738 143.828 219.024L168.423 226.312L183.506 210.776L148.981 200.547C145.017 199.384 140.934 198.792 136.851 198.792Z" fill="#FEFDFD"/>
<path d="M61.4372 217.778C53.0339 220.065 44.2144 217.778 37.8326 211.694C31.4707 205.59 28.6167 196.689 30.2419 187.889L32.085 177.783L16.1039 161.312L11.9091 184.337C9.09481 199.669 14.0496 215.165 25.1285 225.781C36.2074 236.398 51.5871 240.379 66.2137 236.377L84.1758 231.48L68.9289 215.737L61.4174 217.778H61.4372Z" fill="#FEFDFD"/>
<path d="M245.104 147.343L235.61 157.122L238.048 181.826L255.195 164.139L252.459 136.082C250.735 140.083 248.215 144.158 245.123 147.343H245.104Z" fill="#C91818"/>
<path d="M28.8963 96.4251L38.6561 86.5166L36.17 61.7178L19.1255 79.2756L21.8852 107.048C23.5896 103.209 25.8838 99.5079 28.8765 96.4251H28.8963Z" fill="#FEFDFD"/>
<path d="M182.624 210.527L167.03 225.954L190.42 232.859L204.9 217.043L182.624 210.527Z" fill="#FEFDFD"/>
<path d="M182.845 33.9415L204.965 27.8477L193.495 16.047C191.136 13.6175 187.727 12.6784 184.497 13.5563L166.936 18.2969L182.845 33.9415Z" fill="#C91818"/>
<path d="M93.3955 33.5176L106.603 17.3815L91.9213 13.0663C87.8386 11.8617 83.4585 13.0255 80.4658 16.1083L70.2391 26.643L93.3955 33.5176Z" fill="#C91818"/>
<path d="M237.909 89.0142L245.104 96.4252C248.75 100.182 251.446 104.633 253.17 109.451L258.085 82.6036L242.111 66.1482L237.929 89.0346L237.909 89.0142Z" fill="#FEFDFD"/>
<path d="M89.8394 210.078L68.946 215.773L84.1988 231.52L105.094 225.777L89.8394 210.078Z" fill="#C91818"/>
<path d="M36.2493 154.897L28.8964 147.322C25.3487 143.668 22.6731 139.34 20.9489 134.624L16.0703 161.328L32.0744 177.81L36.2295 154.856L36.2493 154.897Z" fill="#FEFDFD"/>
<path d="M32.3845 129.948C37.5619 129.948 41.759 125.625 41.759 120.292C41.759 114.958 37.5619 110.635 32.3845 110.635C27.2072 110.635 23.0101 114.958 23.0101 120.292C23.0101 125.625 27.2072 129.948 32.3845 129.948Z" fill="#E0D3D3"/>
<path d="M241.833 131.418C247.011 131.418 251.208 127.095 251.208 121.762C251.208 116.428 247.011 112.105 241.833 112.105C236.656 112.105 232.459 116.428 232.459 121.762C232.459 127.095 236.656 131.418 241.833 131.418Z" fill="#E0D3D3"/>
<path d="M137.406 218.105C142.584 218.105 146.781 213.782 146.781 208.448C146.781 203.115 142.584 198.792 137.406 198.792C132.229 198.792 128.032 203.115 128.032 208.448C128.032 213.782 132.229 218.105 137.406 218.105Z" fill="#E0D3D3"/>
<path d="M88.0169 32.5025C93.3147 32.5025 97.6094 28.0785 97.6094 22.6211C97.6094 17.1638 93.3147 12.7397 88.0169 12.7397C82.7191 12.7397 78.4244 17.1638 78.4244 22.6211C78.4244 28.0785 82.7191 32.5025 88.0169 32.5025Z" fill="#AE1313"/>
<path d="M186.875 32.7271C192.074 32.7271 196.289 28.3853 196.289 23.0294C196.289 17.6736 192.074 13.3318 186.875 13.3318C181.676 13.3318 177.461 17.6736 177.461 23.0294C177.461 28.3853 181.676 32.7271 186.875 32.7271Z" fill="#AE1313"/>
</g>
<defs>
<clipPath id="clip0_61_3">
<rect width="274" height="263" fill="white"/>
</clipPath>
</defs>
</svg>
