<svg width="263" height="729" viewBox="0 0 263 729" fill="none" xmlns="http://www.w3.org/2000/svg">
<g clip-path="url(#clip0_103_18)">
<path d="M462.097 646.491C423.131 685.425 359.812 685.425 320.846 646.491L300.174 625.835L240.479 641.624L283.069 684.18C312.011 713.098 350.467 729 391.415 729C432.363 729 470.819 713.098 499.761 684.18L539.746 644.227L481.184 627.363L462.041 646.491H462.097Z" fill="#C91818"/>
<path d="M200.663 73.9072L103.418 171.073L110.385 239.491L259.282 90.7146L200.663 73.9072Z" fill="#C91818"/>
<path d="M91.6379 492.791L196.925 597.993L256.564 582.261L103.588 429.353L91.6379 492.791Z" fill="#C91818"/>
<path d="M53.3516 337.846C53.3516 323.245 56.5799 309.154 62.5267 296.252L54.7675 219.741L44.9128 229.588C15.9149 258.506 0 296.931 0 337.846C0 378.761 15.9149 417.186 44.8561 446.104L45.9322 447.179L59.8648 373.271C55.6171 362.123 53.295 350.183 53.295 337.902L53.3516 337.846Z" fill="#C91818"/>
<path d="M424.604 119.859L526.04 93.0915L482.373 49.4601L410.955 68.3048C398.381 71.6436 385.128 71.4739 372.668 67.9087L302.382 47.7058L259.282 90.7713L357.943 119.123C379.691 125.405 402.742 125.631 424.661 119.859H424.604Z" fill="#C91818"/>
<path d="M118.71 321.548L110.385 239.491L82.6327 267.221C74.1372 275.709 67.4541 285.556 62.5267 296.195L65.6417 326.867C66.3214 333.715 66.0382 340.675 64.7356 347.466L59.8648 373.215C64.7922 386.231 72.4381 398.228 82.5761 408.414L103.588 429.409L117.181 357.426C119.39 345.599 119.9 333.545 118.71 321.604V321.548Z" fill="#FEFDFD"/>
<path d="M101.096 147.928C98.6609 123.764 107.949 101.014 126.583 85.4518C145.216 69.8894 169.287 64.7962 192.621 71.5305L200.663 73.8507L270.213 38.3684L207.346 20.316C167.304 8.82812 124.317 17.8826 92.3176 44.5368C60.3179 71.191 43.7801 111.88 47.9712 153.304L54.7109 219.685L103.418 171.017L101.096 147.928Z" fill="#FEFDFD"/>
<path d="M391.075 551.022C380.314 551.022 369.553 552.381 359.019 555.154L256.62 582.204L300.287 625.835L372.725 606.708C385.298 603.369 398.551 603.539 411.011 607.104L481.297 627.307L524.398 584.241L425.737 555.889C414.409 552.664 402.742 551.022 391.075 551.022Z" fill="#FEFDFD"/>
<path d="M175.46 603.652C151.446 609.99 126.243 603.652 108.006 586.788C89.8256 569.867 81.6699 545.194 86.3141 520.803L91.5813 492.791L45.9322 447.179L33.9253 510.957C25.8829 553.456 40.042 596.408 71.7019 625.835C103.362 655.263 147.312 666.298 189.109 655.206L240.535 641.624L196.869 597.993L175.403 603.652H175.46Z" fill="#FEFDFD"/>
<path d="M82.576 267.277L110.328 239.548L103.362 171.073L54.6542 219.741L62.4134 296.252C67.2842 285.613 73.9673 275.822 82.5194 267.277H82.576Z" fill="#FEFDFD"/>
<path d="M259.282 90.7147L302.382 47.6493L262.68 36.218C251.013 32.8792 238.496 36.1048 229.944 44.65L200.72 73.8507L259.282 90.7147Z" fill="#C91818"/>
<path d="M256.563 582.26L196.925 597.993L240.592 641.624L300.23 625.835L256.563 582.26Z" fill="#C91818"/>
<path d="M103.588 429.353L82.5761 408.358C72.4381 398.228 64.7922 386.231 59.8648 373.158L45.9323 447.066L91.5813 492.678L103.532 429.239L103.588 429.353Z" fill="#FEFDFD"/>
<path d="M92.5441 360.199C107.339 360.199 119.333 348.215 119.333 333.432C119.333 318.648 107.339 306.664 92.5441 306.664C77.7489 306.664 65.755 318.648 65.755 333.432C65.755 348.215 77.7489 360.199 92.5441 360.199Z" fill="#E0D3D3"/>
<path d="M251.523 90.0922C266.662 90.0922 278.935 77.8293 278.935 62.7023C278.935 47.5754 266.662 35.3125 251.523 35.3125C236.384 35.3125 224.111 47.5754 224.111 62.7023C224.111 77.8293 236.384 90.0922 251.523 90.0922Z" fill="#AE1313"/>
</g>
<defs>
<clipPath id="clip0_103_18">
<rect width="263" height="729" fill="white"/>
</clipPath>
</defs>
</svg>
