<svg width="263" height="729" viewBox="0 0 263 729" fill="none" xmlns="http://www.w3.org/2000/svg">
<g clip-path="url(#clip0_103_18)">
<path d="M462.097 646.491C423.131 685.425 359.812 685.425 320.846 646.491L300.174 625.835L240.479 641.624L283.069 684.18C312.011 713.098 350.467 729 391.415 729C432.363 729 470.819 713.098 499.761 684.18L539.746 644.227L481.184 627.363L462.041 646.491H462.097Z" fill="#C91818"/>
<path d="M200.685 73.8268L103.418 171.073L110.385 239.491L259.282 90.7148L200.685 73.8268Z" fill="#C91818"/>
<path d="M91.6379 492.791L196.925 597.993L256.564 582.261L103.588 429.353L91.6379 492.791Z" fill="#C91818"/>
<path d="M53.3516 337.846C53.3516 323.245 56.5799 309.154 62.5267 296.252L54.7675 219.741L44.9128 229.588C15.9149 258.506 0 296.931 0 337.846C0 378.761 15.9149 417.186 44.8561 446.104L45.9322 447.179L59.8648 373.271C55.6171 362.123 53.295 350.183 53.295 337.902L53.3516 337.846Z" fill="#C91818"/>
<path d="M424.604 119.859L526.04 93.0915L482.373 49.4601L410.955 68.3048C398.381 71.6436 385.128 71.4739 372.668 67.9087L302.382 47.7058L259.093 90.7193L357.943 119.123C379.691 125.405 402.742 125.631 424.661 119.859H424.604Z" fill="#C91818"/>
<path d="M391.075 551.022C380.314 551.022 369.553 552.381 359.019 555.154L256.62 582.204L300.287 625.835L372.725 606.708C385.298 603.369 398.551 603.539 411.011 607.104L481.297 627.307L524.398 584.241L425.737 555.889C414.409 552.664 402.742 551.022 391.075 551.022Z" fill="#FEFDFD"/>
<path d="M256.563 582.26L196.925 597.993L240.592 641.624L300.23 625.835L256.563 582.26Z" fill="#C91818"/>
<path fill-rule="evenodd" clip-rule="evenodd" d="M126.583 85.4518C107.949 101.014 98.6608 123.764 101.096 147.928L103.5 171L54.5 220L47.9711 153.304C43.78 111.88 60.3179 71.1909 92.3175 44.5368C124.317 17.8826 167.304 8.82812 207.346 20.316L270.213 38.3684L200.663 73.8507L192.621 71.5305C169.287 64.7962 145.216 69.8894 126.583 85.4518ZM110.388 239.512L110.387 239.513L118.71 321.548V321.604C119.899 333.545 119.39 345.599 117.181 357.426L103.594 429.379L103.588 429.409L91.6403 492.777L91.6445 492.781L85.98 521.064C81.3359 545.455 89.4915 570.128 107.672 587.049C125.909 603.913 151.112 610.251 175.126 603.913H175.069L196.535 598.254L240.201 641.885L188.775 655.467C146.978 666.559 103.028 655.523 71.3678 626.096C39.708 596.669 25.5489 553.717 33.5913 511.217L45.9281 447.193L45.9331 447.168L59.8532 373.262L59.8516 373.258L64.7355 347.466C66.0382 340.675 66.3213 333.715 65.6417 326.867L62.5267 296.195L62.5456 296.154L54.4729 220.028L103.473 171.028L110.388 239.512ZM82.1985 408.033C73.5718 399.307 66.7298 389.205 61.8982 378.249C66.7298 389.175 73.5499 399.252 82.1985 408.033Z" fill="#FEFDFD"/>
<path d="M259.282 90.7147L302.382 47.6493L262.68 36.218C251.013 32.8792 238.496 36.1048 229.944 44.65L200.653 73.8429L259.282 90.7147Z" fill="#C91818"/>
<path d="M92.5441 360.199C107.339 360.199 119.333 348.215 119.333 333.432C119.333 318.648 107.339 306.664 92.5441 306.664C77.7489 306.664 65.755 318.648 65.755 333.432C65.755 348.215 77.7489 360.199 92.5441 360.199Z" fill="#E0D3D3"/>
<path d="M251.523 90.0922C266.662 90.0922 278.935 77.8293 278.935 62.7023C278.935 47.5754 266.662 35.3125 251.523 35.3125C236.384 35.3125 224.111 47.5754 224.111 62.7023C224.111 77.8293 236.384 90.0922 251.523 90.0922Z" fill="#AE1313"/>
</g>
<defs>
<clipPath id="clip0_103_18">
<rect width="263" height="729" fill="white"/>
</clipPath>
</defs>
</svg>
