<svg width="66" height="66" viewBox="0 0 66 66" fill="none" xmlns="http://www.w3.org/2000/svg">
<g id="twitter 1">
<path id="Vector" d="M59.2157 19.5573C59.2576 20.1436 59.2576 20.73 59.2576 21.3162C59.2576 39.1981 45.6473 59.8022 20.7716 59.8022C13.1078 59.8022 5.9886 57.5826 0 53.73C1.08887 53.8555 2.13572 53.8974 3.26648 53.8974C9.58998 53.8974 15.4111 51.7617 20.0596 48.1183C14.1129 47.9926 9.1294 44.098 7.41237 38.7375C8.25 38.8631 9.0875 38.9469 9.96703 38.9469C11.1815 38.9469 12.396 38.7793 13.5266 38.4863C7.32871 37.2298 2.68009 31.7857 2.68009 25.2109V25.0434C4.48078 26.0485 6.57486 26.6767 8.79424 26.7603C5.15084 24.3314 2.76388 20.1855 2.76388 15.4951C2.76388 12.9824 3.4338 10.6792 4.60646 8.66899C11.2651 16.8771 21.274 22.2374 32.4973 22.8238C32.2879 21.8187 32.1622 20.7719 32.1622 19.7249C32.1622 12.2705 38.1927 6.19824 45.6889 6.19824C49.5835 6.19824 53.1013 7.83148 55.5721 10.4698C58.6291 9.88354 61.5606 8.75278 64.1572 7.20332C63.1519 10.3443 61.0162 12.9826 58.2105 14.6576C60.9326 14.3646 63.5709 13.6106 65.9997 12.5638C64.1574 15.2439 61.854 17.6308 59.2157 19.5573Z" fill="white"/>
</g>
</svg>
